# Created by FreeCAD <https://www.freecad.org>
v 15.000000 0.000000 0.000000
v 14.915022 1.594402 0.000000
v 15.000000 0.000000 4.000000
v 14.915022 1.594402 4.000000
v 14.661051 3.170739 0.000000
v 14.661051 3.170739 4.000000
v 14.240964 4.711151 0.000000
v 14.240964 4.711151 4.000000
v 13.659522 6.198183 0.000000
v 13.659522 6.198183 4.000000
v 12.923311 7.614987 0.000000
v 12.923311 7.614987 4.000000
v 12.040674 8.945510 0.000000
v 12.040674 8.945510 4.000000
v 11.021612 10.174678 0.000000
v 11.021612 10.174678 4.000000
v 9.877670 11.288562 0.000000
v 9.877670 11.288562 4.000000
v 8.621811 12.274542 0.000000
v 8.621811 12.274542 4.000000
v 7.268263 13.121447 0.000000
v 7.268263 13.121447 4.000000
v 5.832363 13.819679 4.000000
v 5.832363 13.819679 0.000000
v 4.330379 14.361331 0.000000
v 4.330379 14.361331 4.000000
v 2.779331 14.740262 0.000000
v 2.779331 14.740262 4.000000
v 1.196792 14.952180 4.000000
v 1.196792 14.952180 0.000000
v -0.399308 14.994684 0.000000
v -0.399308 14.994684 4.000000
v -1.990883 14.867292 0.000000
v -1.990883 14.867292 4.000000
v -3.559901 14.571448 0.000000
v -3.559901 14.571448 4.000000
v -5.088583 14.110504 4.000000
v -5.088583 14.110504 0.000000
v -6.559610 13.489682 0.000000
v -6.559610 13.489682 4.000000
v -7.956314 12.716017 0.000000
v -7.956314 12.716017 4.000000
v -9.262869 11.798273 0.000000
v -9.262869 11.798273 4.000000
v -10.464473 10.746851 0.000000
v -10.464473 10.746851 4.000000
v -11.547510 9.573663 0.000000
v -11.547510 9.573663 4.000000
v -12.499709 8.292001 0.000000
v -12.499709 8.292001 4.000000
v -13.310281 6.916388 4.000000
v -13.310281 6.916388 0.000000
v -13.970042 5.462409 0.000000
v -13.970042 5.462409 4.000000
v -14.471518 3.946538 0.000000
v -14.471518 3.946538 4.000000
v -14.809026 2.385952 4.000000
v -14.809026 2.385952 0.000000
v -14.978741 0.798333 0.000000
v -14.978741 0.798333 4.000000
v -14.978741 -0.798333 4.000000
v -14.978741 -0.798333 0.000000
v -14.809026 -2.385952 0.000000
v -14.809026 -2.385952 4.000000
v -14.471518 -3.946538 0.000000
v -14.471518 -3.946538 4.000000
v -13.970042 -5.462409 0.000000
v -13.970042 -5.462409 4.000000
v -13.310281 -6.916388 4.000000
v -13.310281 -6.916388 0.000000
v -12.499709 -8.292001 0.000000
v -12.499709 -8.292001 4.000000
v -11.547510 -9.573663 4.000000
v -11.547510 -9.573663 0.000000
v -10.464473 -10.746851 4.000000
v -10.464473 -10.746851 0.000000
v -9.262869 -11.798273 0.000000
v -9.262869 -11.798273 4.000000
v -7.956314 -12.716017 0.000000
v -7.956314 -12.716017 4.000000
v -6.559610 -13.489682 0.000000
v -6.559610 -13.489682 4.000000
v -5.088583 -14.110504 4.000000
v -5.088583 -14.110504 0.000000
v -3.559901 -14.571448 0.000000
v -3.559901 -14.571448 4.000000
v -1.990883 -14.867292 0.000000
v -1.990883 -14.867292 4.000000
v -0.399308 -14.994684 4.000000
v -0.399308 -14.994684 0.000000
v 1.196792 -14.952180 0.000000
v 1.196792 -14.952180 4.000000
v 2.779331 -14.740262 0.000000
v 2.779331 -14.740262 4.000000
v 4.330379 -14.361331 4.000000
v 4.330379 -14.361331 0.000000
v 5.832363 -13.819679 0.000000
v 5.832363 -13.819679 4.000000
v 7.268263 -13.121447 0.000000
v 7.268263 -13.121447 4.000000
v 8.621811 -12.274542 0.000000
v 8.621811 -12.274542 4.000000
v 9.877670 -11.288562 4.000000
v 9.877670 -11.288562 0.000000
v 11.021612 -10.174678 0.000000
v 11.021612 -10.174678 4.000000
v 12.040674 -8.945510 4.000000
v 12.040674 -8.945510 0.000000
v 12.923311 -7.614987 0.000000
v 12.923311 -7.614987 4.000000
v 13.659522 -6.198183 0.000000
v 13.659522 -6.198183 4.000000
v 14.240964 -4.711151 0.000000
v 14.240964 -4.711151 4.000000
v 14.661051 -3.170739 0.000000
v 14.661051 -3.170739 4.000000
v 14.915022 -1.594402 0.000000
v 14.915022 -1.594402 4.000000
vn 0.998583 0.053222 -0.000000
vn 0.998583 0.053222 0.000000
vn 0.987268 0.159063 0.000000
vn 0.987268 0.159063 -0.000000
vn 0.964768 0.263103 0.000000
vn 0.964768 0.263103 -0.000000
vn 0.931336 0.364160 0.000000
vn 0.931336 0.364160 -0.000000
vn 0.887352 0.461093 0.000000
vn 0.887352 0.461093 -0.000000
vn 0.833314 0.552800 0.000000
vn 0.833314 0.552800 -0.000000
vn 0.769834 0.638244 0.000000
vn 0.769834 0.638244 -0.000000
vn 0.697631 0.716457 0.000000
vn 0.697631 0.716457 -0.000000
vn 0.617525 0.786552 0.000000
vn 0.617525 0.786552 -0.000000
vn 0.530421 0.847734 0.000000
vn 0.437307 0.899312 0.000000
vn 0.530421 0.847734 -0.000000
vn 0.437307 0.899312 0.000000
vn 0.339239 0.940700 0.000000
vn 0.339239 0.940700 -0.000000
vn 0.237327 0.971430 0.000000
vn 0.132725 0.991153 0.000000
vn 0.237327 0.971430 -0.000000
vn 0.132725 0.991153 0.000000
vn 0.026621 0.999646 0.000000
vn 0.026621 0.999646 -0.000000
vn -0.079786 0.996812 0.000000
vn -0.079786 0.996812 0.000000
vn -0.185289 0.982684 0.000000
vn -0.288692 0.957422 0.000000
vn -0.185289 0.982684 0.000000
vn -0.288692 0.957422 0.000000
vn -0.388824 0.921312 0.000000
vn -0.388824 0.921312 0.000000
vn -0.484551 0.874763 0.000000
vn -0.484551 0.874763 0.000000
vn -0.574788 0.818303 0.000000
vn -0.574788 0.818303 0.000000
vn -0.658511 0.752571 0.000000
vn -0.658511 0.752571 0.000000
vn -0.734774 0.678312 0.000000
vn -0.734774 0.678312 0.000000
vn -0.802712 0.596367 0.000000
vn -0.802712 0.596367 0.000000
vn -0.861554 0.507666 0.000000
vn -0.861554 0.507666 0.000000
vn -0.910635 0.413212 0.000000
vn -0.910635 0.413212 0.000000
vn -0.949398 0.314077 0.000000
vn -0.949398 0.314077 0.000000
vn -0.977403 0.211383 0.000000
vn -0.977403 0.211383 0.000000
vn -0.994335 0.106293 0.000000
vn -1.000000 -0.000000 -0.000000
vn -0.994335 0.106293 0.000000
vn -1.000000 0.000000 0.000000
vn -0.994335 -0.106293 0.000000
vn -0.994335 -0.106293 0.000000
vn -0.977403 -0.211383 0.000000
vn -0.977403 -0.211383 0.000000
vn -0.949398 -0.314077 0.000000
vn -0.910635 -0.413212 -0.000000
vn -0.949398 -0.314077 0.000000
vn -0.910635 -0.413212 0.000000
vn -0.861554 -0.507666 0.000000
vn -0.802712 -0.596367 -0.000000
vn -0.861554 -0.507666 0.000000
vn -0.734774 -0.678312 -0.000000
vn -0.802712 -0.596367 0.000000
vn -0.734774 -0.678312 0.000000
vn -0.658511 -0.752571 0.000000
vn -0.658511 -0.752571 0.000000
vn -0.574788 -0.818303 0.000000
vn -0.574788 -0.818303 0.000000
vn -0.484551 -0.874763 0.000000
vn -0.388824 -0.921312 -0.000000
vn -0.484551 -0.874763 0.000000
vn -0.388824 -0.921312 0.000000
vn -0.288692 -0.957422 0.000000
vn -0.288692 -0.957422 0.000000
vn -0.185289 -0.982684 0.000000
vn -0.079786 -0.996812 -0.000000
vn -0.185289 -0.982684 0.000000
vn -0.079786 -0.996812 0.000000
vn 0.026621 -0.999646 0.000000
vn 0.026621 -0.999646 0.000000
vn 0.132725 -0.991153 0.000000
vn 0.132725 -0.991153 0.000000
vn 0.237327 -0.971430 0.000000
vn 0.237327 -0.971430 0.000000
vn 0.339239 -0.940700 0.000000
vn 0.339239 -0.940700 0.000000
vn 0.437307 -0.899312 0.000000
vn 0.437307 -0.899312 0.000000
vn 0.530421 -0.847734 0.000000
vn 0.530421 -0.847734 0.000000
vn 0.617525 -0.786552 0.000000
vn 0.617525 -0.786552 0.000000
vn 0.697631 -0.716457 0.000000
vn 0.697631 -0.716457 0.000000
vn 0.769834 -0.638244 0.000000
vn 0.769834 -0.638244 0.000000
vn 0.833314 -0.552800 0.000000
vn 0.833314 -0.552800 0.000000
vn 0.887352 -0.461093 0.000000
vn 0.887352 -0.461093 0.000000
vn 0.931336 -0.364160 0.000000
vn 0.931336 -0.364160 0.000000
vn 0.964768 -0.263103 0.000000
vn 0.964768 -0.263103 0.000000
vn 0.987268 -0.159063 0.000000
vn 0.987268 -0.159063 0.000000
vn 0.998583 -0.053222 0.000000
vn 0.998583 -0.053222 0.000000
vn 0.000000 0.000000 -1.000000
vn 0.000000 0.000000 -1.000000
vn 0.000000 0.000000 -1.000000
vn 0.000000 0.000000 -1.000000
vn 0.000000 0.000000 -1.000000
vn 0.000000 0.000000 -1.000000
vn 0.000000 0.000000 -1.000000
vn 0.000000 0.000000 -1.000000
vn 0.000000 0.000000 -1.000000
vn 0.000000 0.000000 -1.000000
vn 0.000000 0.000000 -1.000000
vn 0.000000 0.000000 -1.000000
vn 0.000000 -0.000000 -1.000000
vn 0.000000 -0.000000 -1.000000
vn 0.000000 0.000000 -1.000000
vn 0.000000 -0.000000 -1.000000
vn 0.000000 0.000000 -1.000000
vn 0.000000 0.000000 -1.000000
vn 0.000000 -0.000000 -1.000000
vn 0.000000 -0.000000 -1.000000
vn 0.000000 -0.000000 -1.000000
vn 0.000000 0.000000 -1.000000
vn 0.000000 0.000000 -1.000000
vn 0.000000 0.000000 -1.000000
vn 0.000000 0.000000 -1.000000
vn 0.000000 0.000000 -1.000000
vn 0.000000 0.000000 -1.000000
vn 0.000000 0.000000 -1.000000
vn 0.000000 0.000000 -1.000000
vn 0.000000 0.000000 -1.000000
vn 0.000000 0.000000 -1.000000
vn 0.000000 -0.000000 -1.000000
vn 0.000000 -0.000000 -1.000000
vn 0.000000 -0.000000 -1.000000
vn 0.000000 0.000000 -1.000000
vn 0.000000 0.000000 -1.000000
vn 0.000000 -0.000000 -1.000000
vn 0.000000 -0.000000 -1.000000
vn 0.000000 -0.000000 -1.000000
vn -0.000000 -0.000000 -1.000000
vn 0.000000 0.000000 -1.000000
vn 0.000000 0.000000 -1.000000
vn 0.000000 0.000000 -1.000000
vn 0.000000 0.000000 -1.000000
vn 0.000000 0.000000 -1.000000
vn -0.000000 -0.000000 -1.000000
vn -0.000000 -0.000000 -1.000000
vn -0.000000 -0.000000 -1.000000
vn -0.000000 -0.000000 -1.000000
vn 0.000000 0.000000 -1.000000
vn 0.000000 0.000000 -1.000000
vn 0.000000 -0.000000 -1.000000
vn 0.000000 -0.000000 -1.000000
vn -0.000000 -0.000000 -1.000000
vn 0.000000 0.000000 -1.000000
vn 0.000000 -0.000000 -1.000000
vn 0.000000 0.000000 -1.000000
vn 0.000000 0.000000 1.000000
vn 0.000000 0.000000 1.000000
vn 0.000000 0.000000 1.000000
vn 0.000000 0.000000 1.000000
vn 0.000000 0.000000 1.000000
vn 0.000000 0.000000 1.000000
vn 0.000000 0.000000 1.000000
vn 0.000000 0.000000 1.000000
vn 0.000000 0.000000 1.000000
vn 0.000000 0.000000 1.000000
vn 0.000000 0.000000 1.000000
vn 0.000000 0.000000 1.000000
vn 0.000000 0.000000 1.000000
vn 0.000000 0.000000 1.000000
vn 0.000000 0.000000 1.000000
vn 0.000000 0.000000 1.000000
vn 0.000000 0.000000 1.000000
vn 0.000000 0.000000 1.000000
vn 0.000000 0.000000 1.000000
vn 0.000000 0.000000 1.000000
vn 0.000000 0.000000 1.000000
vn 0.000000 0.000000 1.000000
vn 0.000000 0.000000 1.000000
vn 0.000000 0.000000 1.000000
vn 0.000000 0.000000 1.000000
vn 0.000000 0.000000 1.000000
vn 0.000000 0.000000 1.000000
vn 0.000000 0.000000 1.000000
vn 0.000000 0.000000 1.000000
vn 0.000000 0.000000 1.000000
vn 0.000000 0.000000 1.000000
vn 0.000000 0.000000 1.000000
vn 0.000000 0.000000 1.000000
vn 0.000000 0.000000 1.000000
vn 0.000000 0.000000 1.000000
vn 0.000000 0.000000 1.000000
vn 0.000000 0.000000 1.000000
vn 0.000000 0.000000 1.000000
vn 0.000000 0.000000 1.000000
vn 0.000000 0.000000 1.000000
vn 0.000000 0.000000 1.000000
vn 0.000000 0.000000 1.000000
vn 0.000000 0.000000 1.000000
vn 0.000000 0.000000 1.000000
vn 0.000000 0.000000 1.000000
vn 0.000000 0.000000 1.000000
vn 0.000000 0.000000 1.000000
vn 0.000000 0.000000 1.000000
vn 0.000000 0.000000 1.000000
vn 0.000000 0.000000 1.000000
vn 0.000000 0.000000 1.000000
vn 0.000000 0.000000 1.000000
vn 0.000000 0.000000 1.000000
vn 0.000000 0.000000 1.000000
vn 0.000000 0.000000 1.000000
vn 0.000000 0.000000 1.000000
vn 0.000000 0.000000 1.000000
f 1//1 2//1 3//1
f 3//2 2//2 4//2
f 4//3 5//3 6//3
f 2//4 5//4 4//4
f 6//5 7//5 8//5
f 5//6 7//6 6//6
f 8//7 9//7 10//7
f 7//8 9//8 8//8
f 10//9 11//9 12//9
f 9//10 11//10 10//10
f 12//11 13//11 14//11
f 11//12 13//12 12//12
f 14//13 15//13 16//13
f 13//14 15//14 14//14
f 16//15 17//15 18//15
f 15//16 17//16 16//16
f 18//17 19//17 20//17
f 17//18 19//18 18//18
f 20//19 21//19 22//19
f 22//20 21//20 23//20
f 19//21 21//21 20//21
f 21//22 24//22 23//22
f 23//23 25//23 26//23
f 24//24 25//24 23//24
f 26//25 27//25 28//25
f 28//26 27//26 29//26
f 25//27 27//27 26//27
f 27//28 30//28 29//28
f 29//29 31//29 32//29
f 30//30 31//30 29//30
f 32//31 33//31 34//31
f 31//32 33//32 32//32
f 34//33 35//33 36//33
f 36//34 35//34 37//34
f 33//35 35//35 34//35
f 35//36 38//36 37//36
f 37//37 39//37 40//37
f 38//38 39//38 37//38
f 39//39 41//39 40//39
f 40//40 41//40 42//40
f 41//41 43//41 42//41
f 42//42 43//42 44//42
f 43//43 45//43 44//43
f 44//44 45//44 46//44
f 45//45 47//45 46//45
f 46//46 47//46 48//46
f 47//47 49//47 48//47
f 48//48 49//48 50//48
f 50//49 49//49 51//49
f 49//50 52//50 51//50
f 52//51 53//51 51//51
f 51//52 53//52 54//52
f 54//53 55//53 56//53
f 53//54 55//54 54//54
f 56//55 55//55 57//55
f 55//56 58//56 57//56
f 57//57 59//57 60//57
f 60//58 59//58 61//58
f 58//59 59//59 57//59
f 59//60 62//60 61//60
f 61//61 63//61 64//61
f 62//62 63//62 61//62
f 64//63 65//63 66//63
f 63//64 65//64 64//64
f 66//65 67//65 68//65
f 68//66 67//66 69//66
f 65//67 67//67 66//67
f 67//68 70//68 69//68
f 69//69 71//69 72//69
f 72//70 71//70 73//70
f 70//71 71//71 69//71
f 73//72 74//72 75//72
f 71//73 74//73 73//73
f 74//74 76//74 75//74
f 75//75 77//75 78//75
f 76//76 77//76 75//76
f 78//77 79//77 80//77
f 77//78 79//78 78//78
f 80//79 81//79 82//79
f 82//80 81//80 83//80
f 79//81 81//81 80//81
f 81//82 84//82 83//82
f 83//83 85//83 86//83
f 84//84 85//84 83//84
f 86//85 87//85 88//85
f 88//86 87//86 89//86
f 85//87 87//87 86//87
f 87//88 90//88 89//88
f 90//89 91//89 89//89
f 89//90 91//90 92//90
f 91//91 93//91 92//91
f 92//92 93//92 94//92
f 94//93 93//93 95//93
f 93//94 96//94 95//94
f 96//95 97//95 95//95
f 95//96 97//96 98//96
f 97//97 99//97 98//97
f 98//98 99//98 100//98
f 99//99 101//99 100//99
f 100//100 101//100 102//100
f 102//101 101//101 103//101
f 101//102 104//102 103//102
f 104//103 105//103 103//103
f 103//104 105//104 106//104
f 106//105 105//105 107//105
f 105//106 108//106 107//106
f 108//107 109//107 107//107
f 107//108 109//108 110//108
f 109//109 111//109 110//109
f 110//110 111//110 112//110
f 111//111 113//111 112//111
f 112//112 113//112 114//112
f 113//113 115//113 114//113
f 114//114 115//114 116//114
f 115//115 117//115 116//115
f 116//116 117//116 118//116
f 117//117 1//117 118//117
f 118//118 1//118 3//118
f 74//119 79//119 76//119
f 76//120 79//120 77//120
f 71//121 70//121 74//121
f 79//122 84//122 81//122
f 70//123 84//123 74//123
f 74//124 84//124 79//124
f 65//125 63//125 67//125
f 84//126 87//126 85//126
f 90//127 93//127 91//127
f 87//128 96//128 90//128
f 84//129 96//129 87//129
f 90//130 96//130 93//130
f 55//131 53//131 58//131
f 58//132 53//132 59//132
f 59//133 53//133 62//133
f 52//134 49//134 53//134
f 96//135 101//135 97//135
f 97//136 101//136 99//136
f 49//137 47//137 53//137
f 53//138 45//138 62//138
f 47//139 45//139 53//139
f 62//140 45//140 63//140
f 67//141 45//141 70//141
f 63//142 45//142 67//142
f 101//143 105//143 104//143
f 84//144 108//144 96//144
f 96//145 108//145 101//145
f 101//146 108//146 105//146
f 70//147 108//147 84//147
f 70//148 111//148 108//148
f 108//149 111//149 109//149
f 39//150 38//150 41//150
f 41//151 38//151 43//151
f 43//152 38//152 45//152
f 70//153 115//153 111//153
f 111//154 115//154 113//154
f 33//155 31//155 35//155
f 35//156 31//156 38//156
f 38//157 31//157 45//157
f 30//158 27//158 31//158
f 1//159 7//159 2//159
f 2//160 7//160 5//160
f 70//161 7//161 115//161
f 115//162 7//162 117//162
f 117//163 7//163 1//163
f 25//164 24//164 27//164
f 27//165 24//165 31//165
f 21//166 19//166 24//166
f 24//167 19//167 31//167
f 7//168 13//168 9//168
f 9//169 13//169 11//169
f 45//170 17//170 70//170
f 31//171 17//171 45//171
f 19//172 17//172 31//172
f 70//173 15//173 7//173
f 17//174 15//174 70//174
f 7//175 15//175 13//175
f 80//176 73//176 75//176
f 80//177 75//177 78//177
f 69//178 72//178 73//178
f 83//179 80//179 82//179
f 83//180 69//180 73//180
f 83//181 73//181 80//181
f 64//182 66//182 68//182
f 88//183 83//183 86//183
f 94//184 89//184 92//184
f 95//185 88//185 89//185
f 95//186 83//186 88//186
f 95//187 89//187 94//187
f 54//188 56//188 57//188
f 54//189 57//189 60//189
f 54//190 60//190 61//190
f 50//191 51//191 54//191
f 102//192 95//192 98//192
f 102//193 98//193 100//193
f 48//194 50//194 54//194
f 46//195 54//195 61//195
f 46//196 48//196 54//196
f 46//197 61//197 64//197
f 46//198 68//198 69//198
f 46//199 64//199 68//199
f 106//200 102//200 103//200
f 107//201 83//201 95//201
f 107//202 95//202 102//202
f 107//203 102//203 106//203
f 107//204 69//204 83//204
f 112//205 69//205 107//205
f 112//206 107//206 110//206
f 37//207 40//207 42//207
f 37//208 42//208 44//208
f 37//209 44//209 46//209
f 116//210 69//210 112//210
f 116//211 112//211 114//211
f 32//212 34//212 36//212
f 32//213 36//213 37//213
f 32//214 37//214 46//214
f 28//215 29//215 32//215
f 8//216 3//216 4//216
f 8//217 4//217 6//217
f 8//218 69//218 116//218
f 8//219 116//219 118//219
f 8//220 118//220 3//220
f 23//221 26//221 28//221
f 23//222 28//222 32//222
f 20//223 22//223 23//223
f 20//224 23//224 32//224
f 14//225 8//225 10//225
f 14//226 10//226 12//226
f 18//227 46//227 69//227
f 18//228 32//228 46//228
f 18//229 20//229 32//229
f 16//230 69//230 8//230
f 16//231 18//231 69//231
f 16//232 8//232 14//232
